<svg xmlns="http://www.w3.org/2000/svg" version="1.0" preserveAspectRatio="xMidYMid meet" viewBox="60.16 326.4 903.74 370.4">

<g transform="translate(0.000000,1024.000000) scale(0.100000,-0.100000)" fill="#000000" stroke="none">
<path d="M5135 6446 c-582 -294 -1061 -538 -1063 -544 -2 -6 22 -16 53 -23 44 -10 64 -10 89 -1 18 7 35 12 39 12 4 0 7 -324 7 -720 l0 -720 50 0 49 0 3 458 3 457 28 56 c56 116 161 182 287 183 144 1 234 -48 290 -158 l35 -69 3 -463 3 -464 49 0 49 0 3 463 c3 458 3 462 26 512 43 93 121 154 227 175 166 34 327 -53 386 -208 21 -56 21 -66 27 -928 3 -508 1 -873 -4 -876 -5 -3 -119 49 -254 116 -448 222 -1203 592 -1331 651 l-126 59 -56 120 c-30 67 -145 315 -254 551 -110 237 -226 490 -259 562 l-59 133 -46 0 -46 0 -196 -412 c-108 -227 -248 -522 -311 -656 -64 -133 -116 -247 -116 -252 0 -6 22 -10 49 -10 l48 0 83 180 83 180 395 -2 396 -3 94 -200 c52 -110 103 -212 114 -228 20 -28 270 -156 993 -509 176 -86 493 -242 705 -346 212 -104 415 -203 451 -220 l67 -30 6 82 c3 44 6 261 5 481 0 220 0 448 0 507 l1 107 253 3 252 3 65 31 c82 39 144 99 178 172 24 50 27 69 27 162 0 94 -3 110 -27 155 -25 48 -84 110 -138 147 l-25 16 47 44 c71 67 102 141 102 248 0 128 -45 214 -147 284 -82 56 -140 66 -378 66 l-207 0 -5 28 c-3 15 -6 283 -7 596 0 313 -1 571 -3 572 -1 2 -479 -237 -1062 -530z m974 -1326 c1 -935 -1 -1700 -3 -1700 -3 0 -58 25 -121 56 l-115 57 0 1588 0 1589 108 54 c59 30 112 55 118 55 8 1 12 -456 13 -1699z m-330 973 l3 -558 -56 53 c-81 77 -147 104 -265 110 -80 3 -107 1 -160 -18 -97 -33 -172 -90 -219 -168 l-19 -33 -33 51 c-131 204 -471 231 -634 49 l-46 -51 0 211 0 210 708 355 c389 195 709 352 713 351 3 -2 6 -255 8 -562z m897 -428 c222 -66 232 -376 15 -473 -50 -23 -469 -31 -482 -10 -10 15 -12 404 -3 461 l7 37 206 0 c154 0 220 -4 257 -15z m-3264 -72 c11 -27 84 -185 160 -353 77 -168 142 -311 145 -317 4 -10 -67 -13 -336 -13 -188 0 -341 2 -341 3 0 4 101 219 287 610 31 64 58 117 60 117 2 0 13 -21 25 -47z m3311 -533 c54 -19 121 -81 148 -137 47 -97 18 -238 -64 -308 -70 -61 -105 -67 -364 -73 l-233 -4 0 272 0 272 238 -5 c162 -3 249 -8 275 -17z"/>
<path d="M7745 5775 c-197 -43 -377 -184 -468 -369 -51 -104 -67 -172 -67 -291 0 -123 17 -193 72 -305 34 -67 60 -103 128 -170 140 -141 284 -200 484 -200 122 0 208 19 300 66 169 85 282 214 342 389 24 69 28 96 28 200 1 144 -11 198 -71 324 -129 270 -448 422 -748 356z m291 -99 c197 -52 367 -221 419 -416 19 -72 19 -220 0 -294 -49 -189 -193 -340 -385 -407 -98 -34 -267 -33 -368 3 -97 35 -158 76 -235 158 -149 158 -200 370 -136 565 63 188 230 347 411 391 71 17 231 17 294 0z"/>
<path d="M605 5768 c-3 -7 -4 -305 -3 -663 l3 -650 275 -3 c253 -2 280 -1 342 18 95 29 163 86 208 175 33 65 35 73 35 174 0 95 -3 111 -26 156 -31 57 -87 118 -129 140 -17 9 -30 17 -30 20 0 2 22 26 48 52 55 56 78 100 93 179 13 68 0 154 -31 219 -43 90 -147 164 -259 185 -82 15 -520 13 -526 -2z m557 -108 c110 -41 170 -121 171 -229 0 -78 -39 -160 -96 -202 -71 -51 -121 -60 -338 -57 l-194 3 -3 253 -2 252 204 0 c180 0 212 -2 258 -20z m70 -613 c93 -46 138 -122 138 -234 -1 -107 -48 -190 -132 -234 -54 -28 -151 -39 -349 -39 l-176 0 -7 261 c-3 143 -3 265 0 271 4 7 87 9 238 7 229 -4 231 -4 288 -32z"/>
<path d="M1750 5115 l0 -665 410 0 410 0 6 25 c3 14 4 35 1 48 l-6 22 -361 -3 -360 -3 0 266 0 265 305 0 305 0 0 50 0 50 -305 0 -305 0 0 255 0 255 361 0 360 0 -3 48 -3 47 -407 3 -408 2 0 -665z"/>
<path d="M8650 5765 c0 -3 77 -121 172 -263 94 -141 189 -283 211 -315 21 -32 37 -64 34 -70 -2 -7 -97 -153 -211 -324 -114 -172 -209 -319 -212 -328 -5 -12 4 -15 48 -15 l53 0 189 285 c104 157 192 288 197 291 5 3 95 -126 200 -285 l191 -291 59 0 58 0 -103 158 c-56 86 -155 238 -220 336 l-117 179 97 146 c53 80 150 224 215 319 66 95 119 175 119 177 0 3 -26 5 -58 5 l-59 0 -183 -276 c-101 -151 -187 -277 -190 -279 -4 -2 -90 122 -191 275 l-184 280 -57 0 c-32 0 -58 -2 -58 -5z"/>
</g>
</svg>